<?xml version="1.0" encoding="UTF-8" standalone="no"?>
<!DOCTYPE svg PUBLIC "-//W3C//DTD SVG 1.1//EN"
 "http://www.w3.org/Graphics/SVG/1.1/DTD/svg11.dtd">
<!-- Generated by graphviz version 2.44.1 (20200629.0846)
 -->
<!-- Pages: 1 -->
<svg width="424pt" height="692pt"
 viewBox="0.00 0.00 423.69 692.00" xmlns="http://www.w3.org/2000/svg" xmlns:xlink="http://www.w3.org/1999/xlink">
<g id="graph0" class="graph" transform="scale(1 1) rotate(0) translate(4 688)">
<polygon fill="white" stroke="transparent" points="-4,4 -4,-688 419.69,-688 419.69,4 -4,4"/>
<!-- key/output -->
<g id="node1" class="node">
<title>key/output</title>
<ellipse fill="none" stroke="black" cx="48.1" cy="-234" rx="48.19" ry="18"/>
<text text-anchor="middle" x="48.1" y="-230.3" font-family="Times,serif" font-size="14.00">key/output</text>
</g>
<!-- instance/config/input -->
<g id="node9" class="node">
<title>instance/config/input</title>
<ellipse fill="none" stroke="black" cx="236.1" cy="-162" rx="84.49" ry="18"/>
<text text-anchor="middle" x="236.1" y="-158.3" font-family="Times,serif" font-size="14.00">instance/config/input</text>
</g>
<!-- key/output&#45;&gt;instance/config/input -->
<g id="edge1" class="edge">
<title>key/output&#45;&gt;instance/config/input</title>
<path fill="none" stroke="green" d="M80.84,-220.81C109.95,-209.97 152.94,-193.96 186.3,-181.54"/>
<polygon fill="green" stroke="green" points="187.73,-184.74 195.88,-177.97 185.29,-178.18 187.73,-184.74"/>
</g>
<!-- security_group_2/current/input -->
<g id="node2" class="node">
<title>security_group_2/current/input</title>
<ellipse fill="none" stroke="black" cx="235.1" cy="-522" rx="120.48" ry="18"/>
<text text-anchor="middle" x="235.1" y="-518.3" font-family="Times,serif" font-size="14.00">security_group_2/current/input</text>
</g>
<!-- security_group_2/current/task/delete -->
<g id="node3" class="node">
<title>security_group_2/current/task/delete</title>
<ellipse fill="none" stroke="black" cx="225.1" cy="-450" rx="139.98" ry="18"/>
<text text-anchor="middle" x="225.1" y="-446.3" font-family="Times,serif" font-size="14.00">security_group_2/current/task/delete</text>
</g>
<!-- security_group_2/current/input&#45;&gt;security_group_2/current/task/delete -->
<g id="edge2" class="edge">
<title>security_group_2/current/input&#45;&gt;security_group_2/current/task/delete</title>
<path fill="none" stroke="green" d="M232.62,-503.7C231.52,-495.98 230.2,-486.71 228.97,-478.11"/>
<polygon fill="green" stroke="green" points="232.42,-477.51 227.54,-468.1 225.49,-478.5 232.42,-477.51"/>
</g>
<!-- security_group_2/config/input -->
<g id="node4" class="node">
<title>security_group_2/config/input</title>
<ellipse fill="none" stroke="black" cx="226.1" cy="-378" rx="116.98" ry="18"/>
<text text-anchor="middle" x="226.1" y="-374.3" font-family="Times,serif" font-size="14.00">security_group_2/config/input</text>
</g>
<!-- security_group_2/current/task/delete&#45;&gt;security_group_2/config/input -->
<g id="edge3" class="edge">
<title>security_group_2/current/task/delete&#45;&gt;security_group_2/config/input</title>
<path fill="none" stroke="green" d="M225.34,-431.7C225.45,-423.98 225.59,-414.71 225.71,-406.11"/>
<polygon fill="green" stroke="green" points="229.21,-406.15 225.85,-396.1 222.21,-406.05 229.21,-406.15"/>
</g>
<!-- security_group_2/config/task/create -->
<g id="node6" class="node">
<title>security_group_2/config/task/create</title>
<ellipse fill="none" stroke="black" cx="228.1" cy="-306" rx="136.48" ry="18"/>
<text text-anchor="middle" x="228.1" y="-302.3" font-family="Times,serif" font-size="14.00">security_group_2/config/task/create</text>
</g>
<!-- security_group_2/config/input&#45;&gt;security_group_2/config/task/create -->
<g id="edge4" class="edge">
<title>security_group_2/config/input&#45;&gt;security_group_2/config/task/create</title>
<path fill="none" stroke="green" d="M226.59,-359.7C226.81,-351.98 227.08,-342.71 227.32,-334.11"/>
<polygon fill="green" stroke="green" points="230.82,-334.2 227.61,-324.1 223.82,-334 230.82,-334.2"/>
</g>
<!-- security_group_2/config/output -->
<g id="node5" class="node">
<title>security_group_2/config/output</title>
<ellipse fill="none" stroke="black" cx="236.1" cy="-234" rx="121.58" ry="18"/>
<text text-anchor="middle" x="236.1" y="-230.3" font-family="Times,serif" font-size="14.00">security_group_2/config/output</text>
</g>
<!-- security_group_2/config/output&#45;&gt;instance/config/input -->
<g id="edge5" class="edge">
<title>security_group_2/config/output&#45;&gt;instance/config/input</title>
<path fill="none" stroke="green" d="M236.1,-215.7C236.1,-207.98 236.1,-198.71 236.1,-190.11"/>
<polygon fill="green" stroke="green" points="239.6,-190.1 236.1,-180.1 232.6,-190.1 239.6,-190.1"/>
</g>
<!-- security_group_2/config/task/create&#45;&gt;security_group_2/config/output -->
<g id="edge6" class="edge">
<title>security_group_2/config/task/create&#45;&gt;security_group_2/config/output</title>
<path fill="none" stroke="green" d="M230.07,-287.7C230.95,-279.98 232.01,-270.71 233,-262.11"/>
<polygon fill="green" stroke="green" points="236.48,-262.44 234.14,-252.1 229.53,-261.64 236.48,-262.44"/>
</g>
<!-- instance/current/input -->
<g id="node7" class="node">
<title>instance/current/input</title>
<ellipse fill="none" stroke="black" cx="309.1" cy="-666" rx="87.18" ry="18"/>
<text text-anchor="middle" x="309.1" y="-662.3" font-family="Times,serif" font-size="14.00">instance/current/input</text>
</g>
<!-- instance/current/task/delete -->
<g id="node8" class="node">
<title>instance/current/task/delete</title>
<ellipse fill="none" stroke="black" cx="309.1" cy="-594" rx="106.68" ry="18"/>
<text text-anchor="middle" x="309.1" y="-590.3" font-family="Times,serif" font-size="14.00">instance/current/task/delete</text>
</g>
<!-- instance/current/input&#45;&gt;instance/current/task/delete -->
<g id="edge7" class="edge">
<title>instance/current/input&#45;&gt;instance/current/task/delete</title>
<path fill="none" stroke="green" d="M309.1,-647.7C309.1,-639.98 309.1,-630.71 309.1,-622.11"/>
<polygon fill="green" stroke="green" points="312.6,-622.1 309.1,-612.1 305.6,-622.1 312.6,-622.1"/>
</g>
<!-- instance/current/task/delete&#45;&gt;security_group_2/current/input -->
<g id="edge9" class="edge">
<title>instance/current/task/delete&#45;&gt;security_group_2/current/input</title>
<path fill="none" stroke="green" d="M291.18,-576.05C281.98,-567.35 270.61,-556.59 260.51,-547.04"/>
<polygon fill="green" stroke="green" points="262.77,-544.36 253.1,-540.03 257.96,-549.45 262.77,-544.36"/>
</g>
<!-- instance/current/task/delete&#45;&gt;instance/config/input -->
<g id="edge8" class="edge">
<title>instance/current/task/delete&#45;&gt;instance/config/input</title>
<path fill="none" stroke="green" d="M330.92,-576.37C342.19,-566.81 355.37,-553.94 364.1,-540 386.18,-504.74 393.1,-492.6 393.1,-451 393.1,-451 393.1,-451 393.1,-305 393.1,-263.79 394.74,-246.56 367.1,-216 350.82,-198.01 327.58,-186.01 305.18,-178.06"/>
<polygon fill="green" stroke="green" points="306.24,-174.72 295.65,-174.89 304.03,-181.37 306.24,-174.72"/>
</g>
<!-- instance/config/task/create -->
<g id="node11" class="node">
<title>instance/config/task/create</title>
<ellipse fill="none" stroke="black" cx="236.1" cy="-90" rx="103.98" ry="18"/>
<text text-anchor="middle" x="236.1" y="-86.3" font-family="Times,serif" font-size="14.00">instance/config/task/create</text>
</g>
<!-- instance/config/input&#45;&gt;instance/config/task/create -->
<g id="edge10" class="edge">
<title>instance/config/input&#45;&gt;instance/config/task/create</title>
<path fill="none" stroke="green" d="M236.1,-143.7C236.1,-135.98 236.1,-126.71 236.1,-118.11"/>
<polygon fill="green" stroke="green" points="239.6,-118.1 236.1,-108.1 232.6,-118.1 239.6,-118.1"/>
</g>
<!-- instance/config/output -->
<g id="node10" class="node">
<title>instance/config/output</title>
<ellipse fill="none" stroke="black" cx="236.1" cy="-18" rx="89.08" ry="18"/>
<text text-anchor="middle" x="236.1" y="-14.3" font-family="Times,serif" font-size="14.00">instance/config/output</text>
</g>
<!-- instance/config/task/create&#45;&gt;instance/config/output -->
<g id="edge11" class="edge">
<title>instance/config/task/create&#45;&gt;instance/config/output</title>
<path fill="none" stroke="green" d="M236.1,-71.7C236.1,-63.98 236.1,-54.71 236.1,-46.11"/>
<polygon fill="green" stroke="green" points="239.6,-46.1 236.1,-36.1 232.6,-46.1 239.6,-46.1"/>
</g>
</g>
</svg>
