<?xml version="1.0" encoding="UTF-8" standalone="no"?>
<!DOCTYPE svg PUBLIC "-//W3C//DTD SVG 1.1//EN"
 "http://www.w3.org/Graphics/SVG/1.1/DTD/svg11.dtd">
<!-- Generated by graphviz version 2.44.1 (20200629.0846)
 -->
<!-- Pages: 1 -->
<svg width="313pt" height="548pt"
 viewBox="0.00 0.00 313.44 548.00" xmlns="http://www.w3.org/2000/svg" xmlns:xlink="http://www.w3.org/1999/xlink">
<g id="graph0" class="graph" transform="scale(1 1) rotate(0) translate(4 544)">
<polygon fill="white" stroke="transparent" points="-4,4 -4,-544 309.44,-544 309.44,4 -4,4"/>
<!-- security_group_2/input -->
<g id="node1" class="node">
<title>security_group_2/input</title>
<ellipse fill="none" stroke="black" cx="125.1" cy="-90" rx="92.88" ry="18"/>
<text text-anchor="middle" x="125.1" y="-86.3" font-family="Times,serif" font-size="14.00">security_group_2/input</text>
</g>
<!-- security_group_2/task/delete -->
<g id="node2" class="node">
<title>security_group_2/task/delete</title>
<ellipse fill="none" stroke="black" cx="125.1" cy="-18" rx="112.38" ry="18"/>
<text text-anchor="middle" x="125.1" y="-14.3" font-family="Times,serif" font-size="14.00">security_group_2/task/delete</text>
</g>
<!-- security_group_2/input&#45;&gt;security_group_2/task/delete -->
<g id="edge1" class="edge">
<title>security_group_2/input&#45;&gt;security_group_2/task/delete</title>
<path fill="none" stroke="green" d="M125.1,-71.7C125.1,-63.98 125.1,-54.71 125.1,-46.11"/>
<polygon fill="green" stroke="green" points="128.6,-46.1 125.1,-36.1 121.6,-46.1 128.6,-46.1"/>
</g>
<!-- key/output -->
<g id="node3" class="node">
<title>key/output</title>
<ellipse fill="none" stroke="black" cx="48.1" cy="-378" rx="48.19" ry="18"/>
<text text-anchor="middle" x="48.1" y="-374.3" font-family="Times,serif" font-size="14.00">key/output</text>
</g>
<!-- instance/input -->
<g id="node7" class="node">
<title>instance/input</title>
<ellipse fill="none" stroke="black" cx="125.1" cy="-306" rx="59.59" ry="18"/>
<text text-anchor="middle" x="125.1" y="-302.3" font-family="Times,serif" font-size="14.00">instance/input</text>
</g>
<!-- key/output&#45;&gt;instance/input -->
<g id="edge2" class="edge">
<title>key/output&#45;&gt;instance/input</title>
<path fill="none" stroke="green" d="M65.57,-361.12C75.66,-351.94 88.54,-340.23 99.73,-330.06"/>
<polygon fill="green" stroke="green" points="102.11,-332.62 107.16,-323.31 97.4,-327.44 102.11,-332.62"/>
</g>
<!-- security_group/input -->
<g id="node4" class="node">
<title>security_group/input</title>
<ellipse fill="none" stroke="black" cx="202.1" cy="-522" rx="83.69" ry="18"/>
<text text-anchor="middle" x="202.1" y="-518.3" font-family="Times,serif" font-size="14.00">security_group/input</text>
</g>
<!-- security_group/task/create -->
<g id="node6" class="node">
<title>security_group/task/create</title>
<ellipse fill="none" stroke="black" cx="202.1" cy="-450" rx="103.18" ry="18"/>
<text text-anchor="middle" x="202.1" y="-446.3" font-family="Times,serif" font-size="14.00">security_group/task/create</text>
</g>
<!-- security_group/input&#45;&gt;security_group/task/create -->
<g id="edge3" class="edge">
<title>security_group/input&#45;&gt;security_group/task/create</title>
<path fill="none" stroke="green" d="M202.1,-503.7C202.1,-495.98 202.1,-486.71 202.1,-478.11"/>
<polygon fill="green" stroke="green" points="205.6,-478.1 202.1,-468.1 198.6,-478.1 205.6,-478.1"/>
</g>
<!-- security_group/output -->
<g id="node5" class="node">
<title>security_group/output</title>
<ellipse fill="none" stroke="black" cx="202.1" cy="-378" rx="88.28" ry="18"/>
<text text-anchor="middle" x="202.1" y="-374.3" font-family="Times,serif" font-size="14.00">security_group/output</text>
</g>
<!-- security_group/output&#45;&gt;instance/input -->
<g id="edge4" class="edge">
<title>security_group/output&#45;&gt;instance/input</title>
<path fill="none" stroke="green" d="M183.46,-360.05C173.57,-351.07 161.28,-339.9 150.53,-330.12"/>
<polygon fill="green" stroke="green" points="152.79,-327.44 143.03,-323.31 148.08,-332.62 152.79,-327.44"/>
</g>
<!-- security_group/task/create&#45;&gt;security_group/output -->
<g id="edge5" class="edge">
<title>security_group/task/create&#45;&gt;security_group/output</title>
<path fill="none" stroke="green" d="M202.1,-431.7C202.1,-423.98 202.1,-414.71 202.1,-406.11"/>
<polygon fill="green" stroke="green" points="205.6,-406.1 202.1,-396.1 198.6,-406.1 205.6,-406.1"/>
</g>
<!-- instance/task/modify -->
<g id="node9" class="node">
<title>instance/task/modify</title>
<ellipse fill="none" stroke="black" cx="125.1" cy="-234" rx="84.49" ry="18"/>
<text text-anchor="middle" x="125.1" y="-230.3" font-family="Times,serif" font-size="14.00">instance/task/modify</text>
</g>
<!-- instance/input&#45;&gt;instance/task/modify -->
<g id="edge6" class="edge">
<title>instance/input&#45;&gt;instance/task/modify</title>
<path fill="none" stroke="green" d="M125.1,-287.7C125.1,-279.98 125.1,-270.71 125.1,-262.11"/>
<polygon fill="green" stroke="green" points="128.6,-262.1 125.1,-252.1 121.6,-262.1 128.6,-262.1"/>
</g>
<!-- instance/output -->
<g id="node8" class="node">
<title>instance/output</title>
<ellipse fill="none" stroke="black" cx="125.1" cy="-162" rx="64.19" ry="18"/>
<text text-anchor="middle" x="125.1" y="-158.3" font-family="Times,serif" font-size="14.00">instance/output</text>
</g>
<!-- instance/output&#45;&gt;security_group_2/input -->
<g id="edge7" class="edge">
<title>instance/output&#45;&gt;security_group_2/input</title>
<path fill="none" stroke="#eec900" d="M125.1,-143.7C125.1,-135.98 125.1,-126.71 125.1,-118.11"/>
<polygon fill="#eec900" stroke="#eec900" points="128.6,-118.1 125.1,-108.1 121.6,-118.1 128.6,-118.1"/>
</g>
<!-- instance/task/modify&#45;&gt;instance/output -->
<g id="edge8" class="edge">
<title>instance/task/modify&#45;&gt;instance/output</title>
<path fill="none" stroke="green" d="M125.1,-215.7C125.1,-207.98 125.1,-198.71 125.1,-190.11"/>
<polygon fill="green" stroke="green" points="128.6,-190.1 125.1,-180.1 121.6,-190.1 128.6,-190.1"/>
</g>
</g>
</svg>
