<?xml version="1.0" encoding="UTF-8" standalone="no"?>
<!DOCTYPE svg PUBLIC "-//W3C//DTD SVG 1.1//EN"
 "http://www.w3.org/Graphics/SVG/1.1/DTD/svg11.dtd">
<!-- Generated by graphviz version 2.44.1 (20200629.0846)
 -->
<!-- Pages: 1 -->
<svg width="430pt" height="548pt"
 viewBox="0.00 0.00 429.57 548.00" xmlns="http://www.w3.org/2000/svg" xmlns:xlink="http://www.w3.org/1999/xlink">
<g id="graph0" class="graph" transform="scale(1 1) rotate(0) translate(4 544)">
<polygon fill="white" stroke="transparent" points="-4,4 -4,-544 425.57,-544 425.57,4 -4,4"/>
<!-- key/output -->
<g id="node1" class="node">
<title>key/output</title>
<ellipse fill="none" stroke="black" cx="48.1" cy="-234" rx="48.19" ry="18"/>
<text text-anchor="middle" x="48.1" y="-230.3" font-family="Times,serif" font-size="14.00">key/output</text>
</g>
<!-- instance/input -->
<g id="node7" class="node">
<title>instance/input</title>
<ellipse fill="none" stroke="black" cx="142.1" cy="-162" rx="59.59" ry="18"/>
<text text-anchor="middle" x="142.1" y="-158.3" font-family="Times,serif" font-size="14.00">instance/input</text>
</g>
<!-- key/output&#45;&gt;instance/input -->
<g id="edge1" class="edge">
<title>key/output&#45;&gt;instance/input</title>
<path fill="none" stroke="green" d="M68.96,-217.46C81.68,-207.99 98.14,-195.73 112.23,-185.24"/>
<polygon fill="green" stroke="green" points="114.71,-187.76 120.64,-178.98 110.53,-182.14 114.71,-187.76"/>
</g>
<!-- security_group_2/current/input -->
<g id="node2" class="node">
<title>security_group_2/current/input</title>
<ellipse fill="none" stroke="black" cx="236.1" cy="-522" rx="120.48" ry="18"/>
<text text-anchor="middle" x="236.1" y="-518.3" font-family="Times,serif" font-size="14.00">security_group_2/current/input</text>
</g>
<!-- security_group_2/current/task/delete -->
<g id="node3" class="node">
<title>security_group_2/current/task/delete</title>
<ellipse fill="none" stroke="black" cx="236.1" cy="-450" rx="139.98" ry="18"/>
<text text-anchor="middle" x="236.1" y="-446.3" font-family="Times,serif" font-size="14.00">security_group_2/current/task/delete</text>
</g>
<!-- security_group_2/current/input&#45;&gt;security_group_2/current/task/delete -->
<g id="edge2" class="edge">
<title>security_group_2/current/input&#45;&gt;security_group_2/current/task/delete</title>
<path fill="none" stroke="green" d="M236.1,-503.7C236.1,-495.98 236.1,-486.71 236.1,-478.11"/>
<polygon fill="green" stroke="green" points="239.6,-478.1 236.1,-468.1 232.6,-478.1 239.6,-478.1"/>
</g>
<!-- security_group_2/config/input -->
<g id="node4" class="node">
<title>security_group_2/config/input</title>
<ellipse fill="none" stroke="black" cx="236.1" cy="-378" rx="116.98" ry="18"/>
<text text-anchor="middle" x="236.1" y="-374.3" font-family="Times,serif" font-size="14.00">security_group_2/config/input</text>
</g>
<!-- security_group_2/current/task/delete&#45;&gt;security_group_2/config/input -->
<g id="edge3" class="edge">
<title>security_group_2/current/task/delete&#45;&gt;security_group_2/config/input</title>
<path fill="none" stroke="green" d="M236.1,-431.7C236.1,-423.98 236.1,-414.71 236.1,-406.11"/>
<polygon fill="green" stroke="green" points="239.6,-406.1 236.1,-396.1 232.6,-406.1 239.6,-406.1"/>
</g>
<!-- security_group_2/config/task/create -->
<g id="node6" class="node">
<title>security_group_2/config/task/create</title>
<ellipse fill="none" stroke="black" cx="236.1" cy="-306" rx="136.48" ry="18"/>
<text text-anchor="middle" x="236.1" y="-302.3" font-family="Times,serif" font-size="14.00">security_group_2/config/task/create</text>
</g>
<!-- security_group_2/config/input&#45;&gt;security_group_2/config/task/create -->
<g id="edge4" class="edge">
<title>security_group_2/config/input&#45;&gt;security_group_2/config/task/create</title>
<path fill="none" stroke="green" d="M236.1,-359.7C236.1,-351.98 236.1,-342.71 236.1,-334.11"/>
<polygon fill="green" stroke="green" points="239.6,-334.1 236.1,-324.1 232.6,-334.1 239.6,-334.1"/>
</g>
<!-- security_group_2/config/output -->
<g id="node5" class="node">
<title>security_group_2/config/output</title>
<ellipse fill="none" stroke="black" cx="236.1" cy="-234" rx="121.58" ry="18"/>
<text text-anchor="middle" x="236.1" y="-230.3" font-family="Times,serif" font-size="14.00">security_group_2/config/output</text>
</g>
<!-- security_group_2/config/output&#45;&gt;instance/input -->
<g id="edge5" class="edge">
<title>security_group_2/config/output&#45;&gt;instance/input</title>
<path fill="none" stroke="green" d="M213.34,-216.05C200.74,-206.67 184.94,-194.91 171.42,-184.84"/>
<polygon fill="green" stroke="green" points="173.46,-181.99 163.35,-178.83 169.28,-187.61 173.46,-181.99"/>
</g>
<!-- security_group_2/config/task/create&#45;&gt;security_group_2/config/output -->
<g id="edge6" class="edge">
<title>security_group_2/config/task/create&#45;&gt;security_group_2/config/output</title>
<path fill="none" stroke="green" d="M236.1,-287.7C236.1,-279.98 236.1,-270.71 236.1,-262.11"/>
<polygon fill="green" stroke="green" points="239.6,-262.1 236.1,-252.1 232.6,-262.1 239.6,-262.1"/>
</g>
<!-- instance/task/modify -->
<g id="node9" class="node">
<title>instance/task/modify</title>
<ellipse fill="none" stroke="black" cx="142.1" cy="-90" rx="84.49" ry="18"/>
<text text-anchor="middle" x="142.1" y="-86.3" font-family="Times,serif" font-size="14.00">instance/task/modify</text>
</g>
<!-- instance/input&#45;&gt;instance/task/modify -->
<g id="edge7" class="edge">
<title>instance/input&#45;&gt;instance/task/modify</title>
<path fill="none" stroke="green" d="M142.1,-143.7C142.1,-135.98 142.1,-126.71 142.1,-118.11"/>
<polygon fill="green" stroke="green" points="145.6,-118.1 142.1,-108.1 138.6,-118.1 145.6,-118.1"/>
</g>
<!-- instance/output -->
<g id="node8" class="node">
<title>instance/output</title>
<ellipse fill="none" stroke="black" cx="142.1" cy="-18" rx="64.19" ry="18"/>
<text text-anchor="middle" x="142.1" y="-14.3" font-family="Times,serif" font-size="14.00">instance/output</text>
</g>
<!-- instance/output&#45;&gt;security_group_2/current/input -->
<g id="edge8" class="edge">
<title>instance/output&#45;&gt;security_group_2/current/input</title>
<path fill="none" stroke="red" d="M173.78,-33.93C192.52,-43.5 216.21,-56.93 235.1,-72 302.96,-126.15 328.01,-138.48 367.1,-216 417.65,-316.26 449.84,-376.26 385.1,-468 372.26,-486.19 352.61,-498.17 331.75,-506.06"/>
<polygon fill="red" stroke="red" points="330.4,-502.82 322.1,-509.4 332.69,-509.43 330.4,-502.82"/>
</g>
<!-- instance/task/modify&#45;&gt;instance/output -->
<g id="edge9" class="edge">
<title>instance/task/modify&#45;&gt;instance/output</title>
<path fill="none" stroke="green" d="M142.1,-71.7C142.1,-63.98 142.1,-54.71 142.1,-46.11"/>
<polygon fill="green" stroke="green" points="145.6,-46.1 142.1,-36.1 138.6,-46.1 145.6,-46.1"/>
</g>
</g>
</svg>
